name Walk8.mot
datacolumns 19
datarows 17
range 1.84500000 1.86100000
endheader

                time	   L_ground_force_vx	   L_ground_force_vy	   L_ground_force_vz	   L_ground_force_px	   L_ground_force_py	   L_ground_force_pz	   R_ground_force_vx	   R_ground_force_vy	   R_ground_force_vz	   R_ground_force_px	   R_ground_force_py	   R_ground_force_pz	   L_ground_torque_x	   L_ground_torque_y	   L_ground_torque_z	   R_ground_torque_x	   R_ground_torque_y	   R_ground_torque_z	
          1.84500000	         -0.00000000	         -0.00000001	          0.00000000	          0.00000000	          0.00000000	          0.00000000	         -1.22896667	         -5.26038403	          0.04416422	          0.03412701	          0.00000000	          0.00358330	          0.00000000	         -0.00000000	          0.00000000	          0.00000000	          0.28340481	          0.00000000	
          1.84600000	         -0.00000000	         -0.00000001	          0.00000000	          0.00000000	          0.00000000	          0.00000000	         -1.24574328	         -5.34626160	          0.01906772	          0.02877306	          0.00000000	          0.00298137	          0.00000000	         -0.00000000	          0.00000000	          0.00000000	          0.28427735	          0.00000000	
          1.84700000	         -0.00000000	         -0.00000001	          0.00000000	          0.00000000	          0.00000000	          0.00000000	         -1.25638609	         -5.40463522	         -0.00396703	          0.02376560	          0.00000000	          0.00241935	          0.00000000	         -0.00000000	          0.00000000	          0.00000000	          0.28400149	          0.00000000	
          1.84800000	         -0.00000000	         -0.00000001	          0.00000000	          0.00000000	          0.00000000	          0.00000000	         -1.26137642	         -5.43762282	         -0.02502828	          0.01909409	          0.00000000	          0.00189597	          0.00000000	         -0.00000000	          0.00000000	          0.00000000	          0.28267591	          0.00000000	
          1.84900000	         -0.00000000	         -0.00000001	          0.00000000	          0.00000000	          0.00000000	          0.00000000	         -1.26117600	         -5.44725816	         -0.04420423	          0.01474762	          0.00000000	          0.00140993	          0.00000000	         -0.00000000	          0.00000000	          0.00000000	          0.28039487	          0.00000000	
          1.85000000	         -0.00000000	         -0.00000001	          0.00000000	          0.00000000	          0.00000000	          0.00000000	         -1.25622694	         -5.43549034	         -0.06158273	          0.01071498	          0.00000000	          0.00095989	          0.00000000	         -0.00000000	          0.00000000	          0.00000000	          0.27724822	          0.00000000	
          1.85100000	         -0.00000000	         -0.00000000	          0.00000000	          0.00000000	          0.00000000	          0.00000000	         -1.24695167	         -5.40418362	         -0.07725093	          0.00698472	          0.00000000	          0.00054448	          0.00000000	         -0.00000000	          0.00000000	          0.00000000	          0.27332146	          0.00000000	
          1.85200000	         -0.00000000	         -0.00000000	          0.00000000	          0.00000000	          0.00000000	          0.00000000	         -1.23375308	         -5.35511757	         -0.09129504	          0.00354523	          0.00000000	          0.00016234	          0.00000000	         -0.00000000	          0.00000000	          0.00000000	          0.26869575	          0.00000000	
          1.85300000	         -0.00000000	         -0.00000000	          0.00000000	          0.00000000	          0.00000000	          0.00000000	         -1.21701463	         -5.28998758	         -0.10380008	          0.00038478	          0.00000000	         -0.00018793	          0.00000000	         -0.00000000	          0.00000000	          0.00000000	          0.26344800	          0.00000000	
          1.85400000	         -0.00000000	         -0.00000000	          0.00000000	          0.00000000	          0.00000000	          0.00000000	         -1.19710054	         -5.21040558	         -0.11484965	         -0.00250841	          0.00000000	         -0.00050770	          0.00000000	         -0.00000000	          0.00000000	          0.00000000	          0.25765092	          0.00000000	
          1.85500000	         -0.00000000	         -0.00000000	          0.00000000	          0.00000000	          0.00000000	          0.00000000	         -1.17435605	         -5.11790106	         -0.12452575	         -0.00514612	          0.00000000	         -0.00079837	          0.00000000	         -0.00000000	          0.00000000	          0.00000000	          0.25137313	          0.00000000	
          1.85600000	         -0.00000000	         -0.00000000	          0.00000000	          0.00000000	          0.00000000	          0.00000000	         -1.14910779	         -5.01392230	         -0.13290860	         -0.00754013	          0.00000000	         -0.00106131	          0.00000000	         -0.00000000	          0.00000000	          0.00000000	          0.24467923	          0.00000000	
          1.85700000	         -0.00000000	         -0.00000000	          0.00000000	          0.00000000	          0.00000000	          0.00000000	         -1.12166402	         -4.89983781	         -0.14007647	         -0.00970209	          0.00000000	         -0.00129788	          0.00000000	         -0.00000000	          0.00000000	          0.00000000	          0.23762989	          0.00000000	
          1.85800000	         -0.00000000	         -0.00000000	          0.00000000	          0.00000000	          0.00000000	          0.00000000	         -1.09231513	         -4.77693791	         -0.14610558	         -0.01164357	          0.00000000	         -0.00150943	          0.00000000	         -0.00000000	          0.00000000	          0.00000000	          0.23028196	          0.00000000	
          1.85900000	         -0.00000000	         -0.00000000	          0.00000000	          0.00000000	          0.00000000	          0.00000000	         -1.06133400	         -4.64643653	         -0.15106997	         -0.01337598	          0.00000000	         -0.00169729	          0.00000000	         -0.00000000	          0.00000000	          0.00000000	          0.22268860	          0.00000000	
          1.86000000	         -0.00000000	         -0.00000000	          0.00000000	          0.00000000	          0.00000000	          0.00000000	         -1.02897648	         -4.50947312	         -0.15504141	         -0.01491055	          0.00000000	         -0.00186276	          0.00000000	         -0.00000000	          0.00000000	          0.00000000	          0.21489937	          0.00000000	
          1.86100000	         -0.00000000	         -0.00000000	          0.00000000	          0.00000000	          0.00000000	          0.00000000	         -0.99548187	         -4.36711466	         -0.15808932	         -0.01625830	          0.00000000	         -0.00200713	          0.00000000	         -0.00000000	          0.00000000	          0.00000000	          0.20696036	          0.00000000	
